<svg width="32" height="31" viewBox="0 0 32 31" fill="none" xmlns="http://www.w3.org/2000/svg">
<circle opacity="0.1" cx="16" cy="15.5" r="15" stroke="#080415"/>
<path d="M21.22 12.4744C20.6811 11.5503 19.9499 10.8186 19.0253 10.2803C18.1012 9.74201 17.0928 9.47256 15.9999 9.47256C14.9071 9.47256 13.8987 9.74201 12.974 10.2803C12.0499 10.8186 11.3182 11.5503 10.7799 12.4744C10.2416 13.3985 9.97217 14.4075 9.97217 15.5003C9.97217 16.5932 10.241 17.6022 10.7799 18.5263C11.3188 19.4509 12.0499 20.1821 12.9746 20.7204C13.8987 21.2587 14.9071 21.5281 15.9999 21.5281C17.0928 21.5281 18.1012 21.2587 19.0259 20.7204C19.95 20.1821 20.6817 19.4509 21.2206 18.5263C21.7589 17.6022 22.0277 16.5932 22.0277 15.5003C22.0277 14.4075 21.7589 13.3985 21.22 12.4744ZM15.9999 10.4732C17.2055 10.4732 18.2736 10.859 19.2067 11.6299C18.6522 12.3376 17.8288 12.9199 16.7353 13.378C16.1314 12.2851 15.4767 11.3725 14.7697 10.6414C15.1808 10.5292 15.5895 10.4732 15.9999 10.4732ZM12.0879 12.3659C12.5424 11.7951 13.0861 11.3496 13.722 11.0277C14.4526 11.7517 15.1235 12.6552 15.7353 13.7402C14.5298 14.1019 13.2555 14.2827 11.9131 14.2827C11.5677 14.2827 11.3067 14.2749 11.1295 14.2586C11.3146 13.5672 11.634 12.9367 12.0879 12.3659ZM10.9728 15.5003C10.9728 15.4678 10.9746 15.428 10.9788 15.3798C10.983 15.3316 10.9848 15.2918 10.9848 15.2592C11.1379 15.2677 11.3712 15.2713 11.6847 15.2713C13.2917 15.2713 14.7866 15.0501 16.1687 14.6082C16.2814 14.8331 16.3984 15.0862 16.5183 15.3677C15.7227 15.5443 14.9065 15.9741 14.0705 16.6577C13.2344 17.3412 12.6244 18.0603 12.2386 18.8156C11.3947 17.859 10.9728 16.7541 10.9728 15.5003ZM15.9999 20.5275C14.8583 20.5275 13.8336 20.1737 12.9252 19.4672C13.2874 18.7517 13.8438 18.0676 14.5955 17.4172C15.3465 16.7662 16.0922 16.3605 16.8318 16.1996C17.2971 17.4853 17.6112 18.815 17.7721 20.19C17.185 20.4148 16.5943 20.5275 15.9999 20.5275ZM20.2676 18.1405C19.8662 18.7831 19.3478 19.3099 18.7124 19.7204C18.5678 18.4666 18.2905 17.2448 17.8812 16.0549C18.443 16.0151 18.9451 15.9946 19.3882 15.9946C19.8698 15.9946 20.4044 16.0151 20.9909 16.0549C20.9102 16.8023 20.6691 17.4973 20.2676 18.1405ZM19.5202 15.1266C18.8209 15.1266 18.1742 15.155 17.5792 15.211C17.4261 14.8174 17.2899 14.4919 17.1693 14.2345C18.4147 13.6884 19.2983 13.0253 19.821 12.2453C20.5443 13.0977 20.9385 14.07 21.0024 15.1628C20.5129 15.1387 20.0187 15.1266 19.5202 15.1266Z" fill="#080415"/>
</svg>
