<svg width="31" height="31" viewBox="0 0 31 31" fill="none" xmlns="http://www.w3.org/2000/svg">
<circle opacity="0.1" cx="15.5" cy="15.5" r="15" stroke="#080415"/>
<path d="M17.3961 12.1377H20.4903V12.885H17.3961V12.1377ZM14.2957 15.0947C14.9797 14.7689 15.338 14.2732 15.338 13.5073C15.338 11.9925 14.2058 11.625 12.8983 11.625H9.30005V19.2283H12.9991C14.3857 19.2283 15.6869 18.5643 15.6869 17.0202C15.6869 16.0659 15.2341 15.3603 14.2957 15.0947ZM10.9782 12.9221H12.5524C13.1589 12.9221 13.7033 13.0904 13.7033 13.7914C13.7033 14.4369 13.2798 14.6963 12.6796 14.6963H10.9782V12.9221ZM12.7696 17.9374H10.9766V15.8436H12.8052C13.5435 15.8436 14.0103 16.1509 14.0103 16.9291C14.0103 17.695 13.4535 17.9374 12.7696 17.9374ZM21.7 16.5554C21.7 14.9264 20.7431 13.5691 19.0122 13.5691C17.3294 13.5691 16.1848 14.8306 16.1848 16.4844C16.1848 18.1984 17.2689 19.375 19.0122 19.375C20.3321 19.375 21.1867 18.7836 21.5977 17.522H20.2592C20.1134 17.993 19.5209 18.2401 19.0603 18.2401C18.17 18.2401 17.7048 17.7212 17.7048 16.8395H21.6892C21.6938 16.7484 21.7 16.6527 21.7 16.5554ZM17.7048 15.8853C17.7528 15.1611 18.2383 14.7086 18.9641 14.7086C19.7272 14.7086 20.1088 15.1549 20.1754 15.8853H17.7048Z" fill="#080415"/>
</svg>
