<svg width="31" height="31" viewBox="0 0 31 31" fill="none" xmlns="http://www.w3.org/2000/svg">
<circle opacity="0.1" cx="15.5" cy="15.5" r="15" stroke="#080415"/>
<path d="M21.3057 12.9608C21.2779 12.3303 21.176 11.8969 21.0299 11.5213C20.8793 11.1226 20.6474 10.7656 20.3438 10.4689C20.047 10.1676 19.6877 9.93342 19.2937 9.7851C18.9159 9.63905 18.4847 9.53709 17.8542 9.50929C17.219 9.47914 17.0174 9.47217 15.4063 9.47217C13.7953 9.47217 13.5937 9.47914 12.9608 9.50694C12.3303 9.53474 11.8969 9.63678 11.5214 9.78275C11.1226 9.93342 10.7656 10.1652 10.4689 10.4689C10.1676 10.7656 9.93351 11.1249 9.7851 11.519C9.63905 11.8969 9.53709 12.328 9.50929 12.9585C9.47914 13.5937 9.47217 13.7953 9.47217 15.4063C9.47217 17.0174 9.47914 17.219 9.50694 17.8519C9.53474 18.4824 9.63678 18.9158 9.78284 19.2914C9.93351 19.6901 10.1676 20.047 10.4689 20.3438C10.7656 20.6451 11.1249 20.8793 11.519 21.0276C11.8969 21.1736 12.328 21.2756 12.9585 21.3034C13.5913 21.3313 13.793 21.3382 15.4041 21.3382C17.0151 21.3382 17.2168 21.3313 17.8496 21.3034C18.4801 21.2756 18.9135 21.1736 19.289 21.0276C20.0865 20.7193 20.717 20.0888 21.0253 19.2914C21.1713 18.9135 21.2733 18.4824 21.3011 17.8519C21.3289 17.219 21.3359 17.0174 21.3359 15.4063C21.3359 13.7953 21.3335 13.5937 21.3057 12.9608ZM20.2372 17.8055C20.2116 18.385 20.1143 18.6979 20.0332 18.9066C19.8338 19.4235 19.4235 19.8338 18.9066 20.0332C18.6979 20.1143 18.3827 20.2116 17.8055 20.2371C17.1796 20.265 16.9919 20.2719 15.4087 20.2719C13.8255 20.2719 13.6354 20.265 13.0118 20.2371C12.4323 20.2116 12.1193 20.1143 11.9107 20.0332C11.6535 19.9381 11.4193 19.7874 11.2293 19.5904C11.0322 19.398 10.8816 19.1662 10.7865 18.9089C10.7053 18.7003 10.608 18.385 10.5826 17.8079C10.5547 17.182 10.5478 16.9942 10.5478 15.411C10.5478 13.8277 10.5547 13.6377 10.5826 13.0141C10.608 12.4346 10.7053 12.1217 10.7865 11.9131C10.8816 11.6557 11.0322 11.4217 11.2316 11.2315C11.4239 11.0345 11.6557 10.8838 11.9131 10.7888C12.1217 10.7077 12.437 10.6104 13.0141 10.5848C13.64 10.557 13.8278 10.5501 15.411 10.5501C16.9965 10.5501 17.1843 10.557 17.8079 10.5848C18.3874 10.6104 18.7003 10.7077 18.9089 10.7888C19.1662 10.8838 19.4003 11.0345 19.5904 11.2315C19.7874 11.4239 19.9381 11.6557 20.0332 11.9131C20.1143 12.1217 20.2116 12.4369 20.2372 13.0141C20.265 13.64 20.2719 13.8277 20.2719 15.411C20.2719 16.9942 20.265 17.1796 20.2372 17.8055Z" fill="#080415"/>
<path d="M15.4058 12.3584C13.7229 12.3584 12.3575 13.7237 12.3575 15.4066C12.3575 17.0895 13.7229 18.4548 15.4058 18.4548C17.0887 18.4548 18.454 17.0895 18.454 15.4066C18.454 13.7237 17.0887 12.3584 15.4058 12.3584ZM15.4058 17.3839C14.314 17.3839 13.4285 16.4984 13.4285 15.4066C13.4285 14.3148 14.314 13.4293 15.4058 13.4293C16.4976 13.4293 17.3831 14.3148 17.3831 15.4066C17.3831 16.4984 16.4976 17.3839 15.4058 17.3839Z" fill="#080415"/>
<path d="M19.2863 12.2375C19.2863 12.6304 18.9678 12.949 18.5748 12.949C18.1819 12.949 17.8633 12.6304 17.8633 12.2375C17.8633 11.8445 18.1819 11.526 18.5748 11.526C18.9678 11.526 19.2863 11.8445 19.2863 12.2375Z" fill="#080415"/>
</svg>
