<svg width="98" height="34" viewBox="0 0 98 34" fill="none" xmlns="http://www.w3.org/2000/svg">
<path d="M0.927979 22.616L4.57598 21.816C4.61865 22.4987 4.88531 23.0747 5.37598 23.544C5.88798 23.992 6.58131 24.216 7.45598 24.216C8.11731 24.216 8.62931 24.0667 8.99198 23.768C9.35464 23.4693 9.53598 23.096 9.53598 22.648C9.53598 21.8587 8.97065 21.3467 7.83998 21.112L5.75998 20.632C4.28798 20.312 3.17865 19.736 2.43198 18.904C1.70665 18.072 1.34398 17.08 1.34398 15.928C1.34398 14.4987 1.89865 13.2827 3.00798 12.28C4.13865 11.2773 5.54665 10.776 7.23198 10.776C8.29865 10.776 9.23731 10.936 10.048 11.256C10.8586 11.5547 11.488 11.9493 11.936 12.44C12.384 12.9093 12.7253 13.3893 12.96 13.88C13.1946 14.3707 13.344 14.8507 13.408 15.32L9.85598 16.12C9.77065 15.5653 9.51465 15.0747 9.08798 14.648C8.68265 14.2213 8.07465 14.008 7.26398 14.008C6.70931 14.008 6.22931 14.1573 5.82398 14.456C5.43998 14.7547 5.24798 15.128 5.24798 15.576C5.24798 16.344 5.72798 16.8133 6.68798 16.984L8.92798 17.464C10.4426 17.784 11.5946 18.3707 12.384 19.224C13.1946 20.0773 13.6 21.1013 13.6 22.296C13.6 23.704 13.0666 24.92 12 25.944C10.9333 26.968 9.42931 27.48 7.48798 27.48C6.37865 27.48 5.38665 27.32 4.51198 27C3.63731 26.6587 2.95465 26.232 2.46398 25.72C1.99465 25.1867 1.63198 24.664 1.37598 24.152C1.14131 23.6187 0.991979 23.1067 0.927979 22.616Z" fill="#505050"/>
<path d="M25.601 27C25.5156 26.5733 25.473 26.008 25.473 25.304C25.0676 26.008 24.4596 26.5413 23.649 26.904C22.8596 27.2453 22.017 27.416 21.121 27.416C19.265 27.416 17.8036 26.8293 16.737 25.656C15.6703 24.4613 15.137 22.9787 15.137 21.208V11.256H19.393V20.344C19.393 21.2827 19.6383 22.0507 20.129 22.648C20.6196 23.224 21.3343 23.512 22.273 23.512C23.1903 23.512 23.9156 23.2347 24.449 22.68C24.9823 22.104 25.249 21.3467 25.249 20.408V11.256H29.505V24.152C29.505 25.1547 29.5583 26.104 29.665 27H25.601Z" fill="#505050"/>
<path d="M36.703 17.944V27H32.447V11.256H36.575V13.208C37.023 12.44 37.663 11.8533 38.495 11.448C39.327 11.0427 40.2016 10.84 41.119 10.84C42.975 10.84 44.383 11.4267 45.343 12.6C46.3243 13.752 46.815 15.2453 46.815 17.08V27H42.559V17.816C42.559 16.8773 42.3136 16.12 41.823 15.544C41.3536 14.968 40.6283 14.68 39.647 14.68C38.751 14.68 38.0363 14.9893 37.503 15.608C36.9696 16.2267 36.703 17.0053 36.703 17.944Z" fill="#505050"/>
<path d="M53.7905 17.944V27H49.5345V11.256H53.6625V13.208C54.1105 12.44 54.7505 11.8533 55.5825 11.448C56.4145 11.0427 57.2891 10.84 58.2065 10.84C60.0625 10.84 61.4705 11.4267 62.4305 12.6C63.4118 13.752 63.9025 15.2453 63.9025 17.08V27H59.6465V17.816C59.6465 16.8773 59.4011 16.12 58.9105 15.544C58.4411 14.968 57.7158 14.68 56.7345 14.68C55.8385 14.68 55.1238 14.9893 54.5905 15.608C54.0571 16.2267 53.7905 17.0053 53.7905 17.944Z" fill="#505050"/>
<path d="M71.7807 33.208H67.2687L70.9807 25.016L64.2927 11.256H69.0607L73.2527 20.472L77.1247 11.256H81.6687L71.7807 33.208Z" fill="#505050"/>
<path d="M87.128 1.848V0.492004H80.156V1.848H82.916V9H84.356V1.848H87.128Z" fill="#505050"/>
<path d="M97.6691 9V0.492004H95.7131L92.9891 6.984L90.2291 0.492004H88.3091V9H89.7131V2.76L92.3411 9H93.5891L96.2411 2.736V9H97.6691Z" fill="#505050"/>
</svg>
