<svg width="62" height="62" viewBox="0 0 62 62" fill="none" xmlns="http://www.w3.org/2000/svg">
<g clip-path="url(#clip0_0_80)" filter="url(#filter0_d_0_80)">
<path fill-rule="evenodd" clip-rule="evenodd" d="M23.5859 25.8083H18.0009V27.7485C18.0009 28.2282 18.3924 28.62 18.8717 28.62H20.8806L22.0789 29.2253L23.5859 28.62V25.8083H23.5859Z" fill="#FFEF60"/>
<path fill-rule="evenodd" clip-rule="evenodd" d="M22.7151 22.9929H18.8717C18.3924 22.9929 18.0009 23.3846 18.0009 23.8644V25.306H23.5859V23.8644C23.5859 23.3846 23.1944 22.9929 22.7151 22.9929Z" fill="#FFEF60"/>
<path fill-rule="evenodd" clip-rule="evenodd" d="M23.5859 24.8715H18.0009V26.2415H23.5859V24.8715Z" fill="#FF814E"/>
<path fill-rule="evenodd" clip-rule="evenodd" d="M19.1682 24.8715H18.453H18.0025V23.8643C18.0025 23.5366 18.1857 23.2503 18.453 23.1021C18.5785 23.033 18.7215 22.9928 18.8734 22.9928H20.0391C19.5597 22.9928 19.1683 23.3846 19.1683 23.8643V24.8715H19.1682Z" fill="#FFCD1B"/>
<path fill-rule="evenodd" clip-rule="evenodd" d="M19.1641 26.2415H18.4488H17.9984V25.8083V25.306V24.8715H18.4488H19.1641V25.306V25.8083V26.2415Z" fill="#FF5A17"/>
<path fill-rule="evenodd" clip-rule="evenodd" d="M19.1683 26.2415V27.7485C19.1683 28.2282 19.5598 28.62 20.0391 28.62H18.8734C18.7216 28.62 18.5785 28.581 18.453 28.512C18.1858 28.3625 18.0025 28.0762 18.0025 27.7485V26.2415H18.453H19.1683Z" fill="#FFCD1B"/>
<path fill-rule="evenodd" clip-rule="evenodd" d="M23.5859 28.62H20.8806V29.8644C20.8806 30.1633 21.1252 30.4069 21.4226 30.4069H30.2308C30.2308 29.6246 30.2308 29.2265 29.6323 29.2265L28.4402 29.2252C27.6899 29.224 27.198 29.0318 26.9232 28.6199H23.5859V28.62Z" fill="#635448"/>
<path fill-rule="evenodd" clip-rule="evenodd" d="M29.1666 30.407H21.4209C20.9667 31.1981 20.6015 32.1488 20.9165 33.9671C21.4435 32.1739 26.7964 32.8897 27.3459 34.9592H33.2522C33.4755 34.4531 33.6863 33.9533 33.8708 33.4485H32.2057C28.8379 32.1776 29.9208 32.744 29.1666 30.407Z" fill="#FF8C5E"/>
<path fill-rule="evenodd" clip-rule="evenodd" d="M29.6439 25.5458C29.5285 26.1536 29.3717 26.7526 29.196 27.2624L27.4934 27.9296L25.5948 27.2624C25.6613 23.6697 27.0039 21.9467 28.1458 21.3892C28.5574 21.0758 28.979 20.9578 28.979 20.9578C28.979 20.9578 29.5336 21.845 29.5624 21.845C29.7757 22.3524 29.856 23.0142 29.8422 23.7287L29.6439 25.5458Z" fill="#FFFAFA"/>
<path fill-rule="evenodd" clip-rule="evenodd" d="M25.5953 27.2625H29.1965C30.026 27.3529 31.0461 27.9845 31.0461 29.941V31.9917L30.2288 32.4785L29.1665 31.9917V30.4069C29.1665 29.6246 29.1665 29.2265 28.5679 29.2265L27.3759 29.2252C26.6255 29.224 26.1337 29.0318 25.8589 28.6199C25.6468 28.3023 25.5652 27.8539 25.5953 27.2625Z" fill="#FF8086"/>
<path fill-rule="evenodd" clip-rule="evenodd" d="M25.5953 27.2625C25.6618 23.6697 27.0044 21.9468 28.1463 21.3892C28.3157 21.5085 28.5039 21.6065 28.7109 21.6793C27.6996 22.4441 26.6857 24.1532 26.628 27.2625H25.5953Z" fill="#FFC8C8"/>
<path fill-rule="evenodd" clip-rule="evenodd" d="M25.5957 27.2625H26.6283C26.5982 27.8539 26.6798 28.3023 26.8918 28.62C27.065 28.8799 27.326 29.0997 27.6836 29.2253H27.3762C26.6258 29.224 26.1339 29.0319 25.8591 28.62C25.6471 28.3023 25.5656 27.8539 25.5957 27.2625Z" fill="#F76672"/>
<path fill-rule="evenodd" clip-rule="evenodd" d="M27.3438 34.9592C27.3438 33.1019 25.8719 31.6226 24.0563 31.6226C22.5794 31.6226 21.3296 32.6021 20.9143 33.9671C20.829 34.2471 20.7788 34.5448 20.77 34.8537C20.7662 34.9743 20.8491 34.9592 20.962 34.9592C23.0888 34.9592 25.2169 34.9579 27.3438 34.9592Z" fill="#FF8C5D"/>
<path fill-rule="evenodd" clip-rule="evenodd" d="M26.5201 34.9592H21.516C21.5875 36.3079 22.6804 37.3803 24.018 37.3803C25.3556 37.3803 26.4486 36.3079 26.5201 34.9592Z" fill="#292019"/>
<path fill-rule="evenodd" clip-rule="evenodd" d="M39.2275 34.4255L34.9224 35.4163C35.1959 36.6055 36.3817 37.3489 37.5699 37.0752C38.7594 36.8014 39.501 35.6147 39.2275 34.4255Z" fill="#292019"/>
<path fill-rule="evenodd" clip-rule="evenodd" d="M39.5495 33.2186C38.9409 32.3333 37.8844 31.8197 36.7802 31.9302C34.8328 32.3421 34.1991 33.5062 34.0724 34.9579C34.0749 35.155 34.0963 35.3535 34.1389 35.5519C34.1515 35.6072 34.1879 35.5846 34.2481 35.5707L34.922 35.4163L39.2271 34.4254L39.5496 34.3514L40 34.2471C39.9134 33.8679 39.7578 33.5213 39.5495 33.2186Z" fill="#FFFAFA"/>
<path fill-rule="evenodd" clip-rule="evenodd" d="M36.7812 31.9252L35.0421 25.9075L34.2592 25.5571L33.3833 25.9075C34.5339 29.0972 34.2127 31.3237 33.436 33.4485C33.2503 33.9533 33.0395 34.4531 32.8174 34.9592H34.0684L36.7812 31.9252Z" fill="#FF814E"/>
<path fill-rule="evenodd" clip-rule="evenodd" d="M31.399 19.1602L29.3587 18.7257C29.1517 18.7445 28.5594 19.2418 28.5594 19.5533L28.9936 21.7609C29.1742 21.8149 29.3662 21.8451 29.5645 21.8451C30.6511 21.8451 31.532 20.9623 31.532 19.8747C31.532 19.6223 31.4856 19.3812 31.399 19.1602Z" fill="#FFECE4"/>
<path fill-rule="evenodd" clip-rule="evenodd" d="M32.0547 19.1602C32.0547 17.7562 30.943 16.6198 29.5702 16.6198C28.1975 16.6198 27.0858 17.7562 27.0858 19.1602C27.0858 20.0869 27.4622 20.9107 28.1448 21.3892C28.3882 21.5612 28.6718 21.6881 28.9905 21.7609V19.5532C28.9905 19.2418 29.1486 19.179 29.3557 19.1601H31.3959H32.0547V19.1602Z" fill="#FF8C5D"/>
<path fill-rule="evenodd" clip-rule="evenodd" d="M30.8718 16.9952C30.4941 16.7566 30.0486 16.6198 29.5719 16.6198C28.1991 16.6198 27.0874 17.7562 27.0874 19.1602C27.0874 20.0869 27.4638 20.9107 28.1465 21.3892C28.3196 21.511 28.5116 21.6102 28.7224 21.6831C28.218 21.1719 27.9445 20.4386 27.9445 19.6298C27.9445 18.1631 29.1076 16.9739 30.5418 16.9739C30.6535 16.9739 30.7639 16.9801 30.8718 16.9952Z" fill="#FF5A17"/>
<path fill-rule="evenodd" clip-rule="evenodd" d="M31.0477 31.9918H29.168V33.176C29.168 33.4297 29.3061 33.4485 29.5093 33.4485H32.2071C32.2611 32.2605 31.5421 31.9918 31.0477 31.9918Z" fill="#635448"/>
<path fill-rule="evenodd" clip-rule="evenodd" d="M33.4392 33.4484C34.2159 31.3237 34.5371 29.0972 33.3865 25.9075H34.0314C34.0339 25.9075 34.0365 25.9075 34.039 25.9075H34.2711C35.4217 29.0972 35.1017 31.3236 34.3238 33.4484C34.1393 33.9533 33.9285 34.4531 33.7052 34.9591H33.2534H32.8205C33.0426 34.4531 33.2534 33.9532 33.4392 33.4484Z" fill="#FF5A17"/>
<path fill-rule="evenodd" clip-rule="evenodd" d="M34.0733 34.9579L36.7811 31.9302C37.0609 31.9026 37.3382 31.9139 37.6055 31.9629L35.0031 34.8725C35.0056 35.042 35.0219 35.2141 35.0545 35.3861L34.9228 35.4162L34.2489 35.5707C34.1887 35.5845 34.1523 35.6071 34.1397 35.5519C34.0971 35.3535 34.0758 35.1551 34.0733 34.9579Z" fill="#FFC8C8"/>
<path fill-rule="evenodd" clip-rule="evenodd" d="M21.4213 30.407H29.1671V31.0889H22.8028C22.2846 31.0889 22.0387 31.3124 21.8366 31.7657C21.6622 32.1588 21.6584 32.2869 21.5794 32.7616C21.282 33.1069 21.0537 33.5163 20.9169 33.9671C20.602 32.1487 20.9671 31.1981 21.4213 30.407Z" fill="#FF5A17"/>
<path fill-rule="evenodd" clip-rule="evenodd" d="M21.5797 32.7615C22.182 32.062 23.0692 31.6226 24.0592 31.6226C24.3076 31.6226 24.5485 31.6502 24.7806 31.7017C23.2987 32.0369 22.2623 33.3455 22.2171 34.8537C22.2146 34.9366 22.2523 34.9554 22.3125 34.9592H21.5157H20.9648C20.8519 34.9592 20.7691 34.9743 20.7729 34.8537C20.7816 34.5448 20.8318 34.2471 20.9171 33.9671C20.9196 33.9583 20.9222 33.9508 20.9247 33.9433C20.9247 33.9433 20.9247 33.9433 20.9247 33.942C21.0627 33.5012 21.2873 33.1006 21.5797 32.7615Z" fill="#FF5A17"/>
<path fill-rule="evenodd" clip-rule="evenodd" d="M35.0547 35.3861L39.2281 34.4255C39.2745 34.6226 39.2909 34.821 39.2833 35.0144L35.9708 35.7767L35.8403 35.8068C35.9632 36.3468 36.2757 36.7951 36.691 37.0978C35.844 36.9483 35.1275 36.3079 34.923 35.4163L35.0547 35.3861Z" fill="#635448"/>
<path fill-rule="evenodd" clip-rule="evenodd" d="M22.3122 34.9591H26.5195C26.5057 35.2228 26.4518 35.4765 26.3652 35.7139H23.434H22.6373C22.6686 36.3041 22.8945 36.8403 23.2509 37.2584C22.2834 36.9407 21.572 36.0378 21.5155 34.9591H22.3122V34.9591Z" fill="#635448"/>
<path fill-rule="evenodd" clip-rule="evenodd" d="M20.8795 29.8645V28.62H22.5797V29.8645C22.5797 30.1633 22.8243 30.4069 23.1217 30.4069H21.4215C21.1241 30.407 20.8795 30.1633 20.8795 29.8645Z" fill="#292019"/>
<path fill-rule="evenodd" clip-rule="evenodd" d="M31.5195 19.6637H29.8431C29.6361 19.6826 29.478 19.7466 29.478 20.0581V21.8425C29.3099 21.835 29.1467 21.8074 28.9912 21.7609V19.5532C28.9912 19.2418 29.1492 19.179 29.3563 19.1602H31.3966C31.458 19.3184 31.5007 19.4879 31.5195 19.6637Z" fill="#FFDDCE"/>
<path fill-rule="evenodd" clip-rule="evenodd" d="M35.4085 24.0125L33.0608 24.7886C32.9453 24.8915 33.0758 25.9414 33.1537 25.9075H35.0459H35.8828V24.1795C35.8828 23.8392 35.7059 23.9145 35.4085 24.0125Z" fill="#FFE07D"/>
<path fill-rule="evenodd" clip-rule="evenodd" d="M31.968 25.9075H32.165H33.155C33.7924 25.9075 33.8113 24.8501 33.0621 24.7886L31.968 24.7007L31.6744 25.3223L31.968 25.9075Z" fill="#FFECE4"/>
<path fill-rule="evenodd" clip-rule="evenodd" d="M29.8437 23.7287L29.4509 23.3909C28.4672 22.5433 27.2237 23.9736 28.5387 24.8275L29.6454 25.5458L30.2026 25.9075H31.9655V24.7007L30.8701 24.6115L29.8437 23.7287Z" fill="#FF8086"/>
<path fill-rule="evenodd" clip-rule="evenodd" d="M31.9677 25.9075V25.3223H32.2023H32.329H32.5273H33.5173C33.5549 25.3223 33.5901 25.3198 33.6239 25.3123C33.6603 25.6036 33.4959 25.9075 33.1546 25.9075H32.1646H31.9677Z" fill="#FFDDCE"/>
<path fill-rule="evenodd" clip-rule="evenodd" d="M28.5387 24.8275C27.7432 24.3101 27.8837 23.583 28.3367 23.2766C28.3003 23.5905 28.4496 23.951 28.9013 24.2436L29.7634 24.8024L30.0068 24.9619L30.5639 25.3223H31.9655V25.9075H30.2025L29.6454 25.5458L28.5387 24.8275Z" fill="#F76672"/>
<path fill-rule="evenodd" clip-rule="evenodd" d="M33.0602 24.7886L34.005 24.4772C34.3212 24.8162 34.4743 25.4768 34.2711 25.9075H33.3865H33.1531C33.4944 25.9075 33.6587 25.6036 33.6224 25.3123C33.5897 25.0599 33.4078 24.8175 33.0602 24.7886Z" fill="#FFC269"/>
</g>
<defs>
<filter id="filter0_d_0_80" x="0" y="0" width="62" height="62" filterUnits="userSpaceOnUse" color-interpolation-filters="sRGB">
<feFlood flood-opacity="0" result="BackgroundImageFix"/>
<feColorMatrix in="SourceAlpha" type="matrix" values="0 0 0 0 0 0 0 0 0 0 0 0 0 0 0 0 0 0 127 0" result="hardAlpha"/>
<feOffset dx="2" dy="4"/>
<feGaussianBlur stdDeviation="10"/>
<feColorMatrix type="matrix" values="0 0 0 0 1 0 0 0 0 0.466667 0 0 0 0 0.491863 0 0 0 0.6 0"/>
<feBlend mode="normal" in2="BackgroundImageFix" result="effect1_dropShadow_0_80"/>
<feBlend mode="normal" in="SourceGraphic" in2="effect1_dropShadow_0_80" result="shape"/>
</filter>
<clipPath id="clip0_0_80">
<rect width="22" height="22" fill="white" transform="matrix(-1 0 0 1 40 16)"/>
</clipPath>
</defs>
</svg>
